<?xml version="1.0" standalone="no"?>
<!DOCTYPE svg PUBLIC "-//W3C//DTD SVG 1.1//EN" "http://www.w3.org/Graphics/SVG/1.1/DTD/svg11.dtd">
<svg xmlns="http://www.w3.org/2000/svg">
<metadata>Copyright (C) 2018 by original authors @ fontello.com</metadata>
<defs>
<font id="fontello" horiz-adv-x="1000" >
<font-face font-family="fontello" font-weight="400" font-stretch="normal" units-per-em="1000" ascent="850" descent="-150" />
<missing-glyph horiz-adv-x="1000" />
<glyph glyph-name="plus" unicode="&#xe800;" d="M729 454q44 0 74-31t31-73-31-73-74-30l-208 3 0-212q0-43-30-73t-75-31-73 31-30 73l3 212-212-3q-44 0-74 30t-30 73 30 73 74 31l212 0-3 209q0 42 30 73t73 31 75-31 30-73l0-209 208 0z" horiz-adv-x="834" />

<glyph glyph-name="star" unicode="&#xe801;" d="M929 489q0-12-15-27l-202-197 48-279q0-4 0-12 0-11-6-19t-17-9q-10 0-22 7l-251 132-250-132q-12-7-23-7-11 0-17 9t-6 19q0 4 1 12l48 279-203 197q-14 15-14 27 0 21 31 26l280 40 126 254q11 23 27 23t28-23l125-254 280-40q32-5 32-26z" horiz-adv-x="928.6" />

<glyph glyph-name="minus" unicode="&#xe802;" d="M729 455q44 0 74-32t31-73-31-74-74-30l-625 0q-44 0-74 30t-30 74q0 43 31 74t73 31l625 0z" horiz-adv-x="834" />

<glyph glyph-name="down-dir" unicode="&#xe803;" d="M571 457q0-14-10-25l-250-250q-11-11-25-11t-25 11l-250 250q-11 11-11 25t11 25 25 11h500q14 0 25-11t10-25z" horiz-adv-x="571.4" />

<glyph glyph-name="restau" unicode="&#xe804;" d="M705 394l16-408c0-20-16-36-36-36s-37 16-37 36l18 407c-52 12-91 76-91 154 0 86 49 202 110 202s110-116 110-202c-1-76-39-139-90-153z m129 154c0 101-57 242-150 242s-150-141-150-242c0-80 36-150 90-180l-17-379v-2c0-42 34-76 77-76 42 0 76 34 76 76v1l-15 381c54 30 89 99 89 179z m-531-103l16-453c1-22-16-40-37-41-22 1-38 20-37 41l18 454c-36 10-60 48-57 92 1 14 2 28 2 42l8 156c-1 3 0 7 2 9 2 3 5 4 8 4 3 0 6-2 8-5 2-3 2-6 1-9v-157c0-6 4-10 10-10s10 4 10 10v160c0 3 1 6 3 8 2 2 5 3 7 4 3 0 6-1 7-4 2-2 3-5 3-8v-160c0-6 4-10 10-10s10 4 10 10v160c0 6 4 11 8 11s8-5 8-11v-160c0-6 4-10 10-10s10 4 10 10v161c1 6 5 10 11 10s11-4 11-10v-2l7-156 3-42c4-46-22-85-60-94z m100 96l-3 42-8 152v4c0 17-9 33-23 43-14 9-33 11-48 4-12 5-25 5-36 0-14 6-29 6-43-1-15 5-32 3-45-7-13-9-21-24-21-40v-2l-8-164c-1-11-1-21-2-31-5-47 17-93 56-120l-17-429c-1-44 33-80 77-81 44 1 78 38 77 81l-15 428c41 25 64 72 59 121z" horiz-adv-x="1000" />

<glyph glyph-name="itineraire" unicode="&#xe805;" d="M644 458l-176-220-1-1c0-1-1-1-2-2-1 0-2-1-3-1-2 0-3 1-4 2l-30 110-73 78c0 1 0 3 1 4 1 2 3 2 4 2h1l279 35c2 0 3-1 4-3l0-4 0 0z m17 14c-4 8-12 13-21 13h-1l-278-35c-9 0-17-5-21-12-5-8-5-17-1-25l72-78 29-105 1-2c4-8 12-13 21-13h1c4 0 8 1 12 3 4 2 7 5 9 8l176 220 1 1c4 8 4 17 0 25l0 0z" horiz-adv-x="1000" />

<glyph glyph-name="trash" unicode="&#xe806;" d="M869 752h-238v47c0 28-22 51-50 51h-162c-27 0-50-23-50-51v-47h-238c-28 0-51-23-51-51v-55c0-28 23-50 51-50h27l27-661c2-48 41-85 89-85h452c48 0 87 37 89 85l24 579c0 14-11 26-25 27 0 0 0 0-1 0-13 0-24-11-25-25l-24-579c-1-20-17-36-38-36h-452c-21 0-37 16-38 36l-27 659h660c28 0 51 22 51 50v55c0 28-23 51-51 51z m-449 47h160v-47h-160v47z m449-153l-738 0 0 55 738 0 0-55c0 0 0 0 0 0z m-498-239c0 13-12 24-25 24-1 0-1 0-1 0-14 0-25-11-25-25l7-323c0-13 12-24 25-24 1 0 1 0 1 0 14 0 25 11 25 25l-7 323z m129 24c-14 0-25-11-25-25v-322c0-14 11-25 25-25s25 11 25 25v322c0 14-11 25-25 25z m155 0c-14 1-26-10-26-24l-7-323c0-14 11-25 25-25 0 0 1 0 1 0 13 0 25 11 25 24l7 323c0 14-11 25-25 25z" horiz-adv-x="1000" />

<glyph glyph-name="down-open-big" unicode="&#xe807;" d="M63 570l370-356 372 356q22 26 48 0 26-22 0-48l-396-392q-22-22-48 0l-396 392q-26 26 0 48 24 24 50 0z" horiz-adv-x="866" />

<glyph glyph-name="up-dir" unicode="&#xe808;" d="M571 171q0-14-10-25t-25-10h-500q-15 0-25 10t-11 25 11 26l250 250q10 10 25 10t25-10l250-250q10-11 10-26z" horiz-adv-x="571.4" />

<glyph glyph-name="up-open-big" unicode="&#xe809;" d="M804 130l-372 358-370-358q-26-22-50 0-24 24 0 50l396 390q26 26 48 0l396-390q24-26 0-50-26-22-48 0z" horiz-adv-x="864" />

<glyph glyph-name="left-dir" unicode="&#xe80a;" d="M357 600v-500q0-14-10-25t-26-11-25 11l-250 250q-10 11-10 25t10 25l250 250q11 11 25 11t26-11 10-25z" horiz-adv-x="357.1" />

<glyph glyph-name="cancel" unicode="&#xe80b;" d="M724 112q0-22-15-38l-76-76q-16-15-38-15t-38 15l-164 165-164-165q-16-15-38-15t-38 15l-76 76q-16 16-16 38t16 38l164 164-164 164q-16 16-16 38t16 38l76 76q16 16 38 16t38-16l164-164 164 164q16 16 38 16t38-16l76-76q15-15 15-38t-15-38l-164-164 164-164q15-15 15-38z" horiz-adv-x="785.7" />

<glyph glyph-name="compte" unicode="&#xe80c;" d="M500 310c194 0 350-156 350-350v-10h-700v10c0 194 156 350 350 350z m0 60c-227 0-410-183-410-410v-40c0-17 13-30 30-30h760c17 0 30 13 30 30v40c0 227-183 410-410 410z m-10 380c83 0 150-67 150-150s-67-150-150-150-150 67-150 150 67 150 150 150z m0 60c-116 0-210-94-210-210s94-210 210-210 210 94 210 210-94 210-210 210z" horiz-adv-x="1000" />

<glyph glyph-name="contact" unicode="&#xe80d;" d="M390 314l66-59c25-22 63-22 88 0l66 59 247-204h-714l247 204z m500 250v-430l-250 207 250 223z m-780 0l250-223-250-207v430z m31 26h718l-341-305c-9-8-26-8-35 0l-342 305z m-10 40c-33 0-61-27-61-60v-440c0-33 28-60 61-60h738c33 0 61 27 61 60v440c0 33-28 60-61 60h-738z" horiz-adv-x="1000" />

<glyph glyph-name="edit" unicode="&#xe80e;" d="M935 785c-86 87-226 87-312 0l-572-572c-5-4-7-10-8-16l-43-314c-1-9 2-18 8-24 6-6 13-9 21-9 1 0 2 0 4 0l189 26c15 2 27 16 24 32-2 16-16 27-32 25l-152-21 30 220 230-231c6-5 13-9 21-9s15 3 20 9l572 572c42 42 65 97 65 156s-23 115-65 156z m-301-70l96-96-522-522-96 96 522 522z m-291-753l-94 94 522 522 94-94-522-522z m562 563l-230 230c30 24 66 38 104 38 44 0 85-18 116-48s48-72 48-116c0-38-14-74-38-104z" horiz-adv-x="1000" />

<glyph glyph-name="livaison" unicode="&#xe80f;" d="M781 566c-7 0-12-5-12-12v-51c0-7 5-12 12-12s12 5 12 12v51c0 7-6 12-12 12z m-2 9c45 0 82-37 82-82s-36-81-81-81-82 37-82 82c0 45 36 81 81 81z m-26 59c-6 0-10-4-10-10s4-10 10-10h17v-12c-55-5-99-52-99-108 0-60 49-109 109-109s109 49 109 109c0 27-10 52-26 71l16 21c3 4 2 11-2 14-4 3-11 2-14-2l-14-19c-16 13-36 21-58 23v12h17c6 0 10 4 10 10s-4 10-10 10h-55z m-432 51c0 8-7 15-15 15h-35c-8 0-15-7-15-15s7-15 15-15h35c8-1 15 6 15 15z m0-56c0 8-7 15-15 15h-126c-8 0-15-7-15-15s7-15 15-15h126c8 0 15 6 15 15z m0-56c0 8-7 15-15 15h-188c-8 0-15-7-15-15s7-15 15-15h188c8 0 15 7 15 15z m-80 112c0 8-7 15-15 15h-5c-8 0-15-7-15-15s7-15 15-15h5c8 0 15 6 15 15z m467-299l-2-244c-1-22-17-39-39-39h-336c-22 0-38 17-39 39l-2 329c-1 20 17 37 39 37h324c2 11 5 22 10 32h-15c-8 94-71 148-148 148-77 0-151-54-148-148h-12c-49 0-82-31-80-70l2-329c2-37 32-69 70-69h336c39 0 69 31 70 69l2 231c-11 3-22 7-32 14z m-209 271c58 0 109-39 116-117h-232c7 77 58 117 116 117z" horiz-adv-x="1000" />

<glyph glyph-name="panier" unicode="&#xe810;" d="M737 92c0-33-27-60-60-60h-354c-33 0-60 27-60 60v388c0 33 27 60 60 60h58v-85c0-11 9-20 20-20 11 0 20 9 20 20v85h158v-85c0-11 9-20 20-20 11 0 20 9 20 20v85h57c33 0 60-27 60-60v-388z m-316 497l0 0c-1 21 7 42 22 58 15 15 36 24 57 24 22 0 42-9 57-24 15-15 23-36 22-58v-9h-158l0 9z m256-9h-57v9c1 32-11 63-34 86-22 23-53 36-86 36-32 0-63-13-85-36-22-23-35-54-34-86v-9h-58c-55 0-100-45-100-100v-388c0-27 11-52 29-71s44-29 71-29h353c26 0 52 11 71 29s29 44 29 71v388c0 27-11 52-29 71s-44 29-70 29l0 0z" horiz-adv-x="1000" />

<glyph glyph-name="search" unicode="&#xe811;" d="M0 434c0-230 187-416 416-416 106 0 202 40 276 105l265-266c5-4 11-7 18-7s13 3 18 7c10 10 10 26 0 36l-266 265c65 74 105 170 105 276 0 229-187 416-416 416s-416-187-416-416z m782 0c0-202-164-366-366-366s-366 164-366 366 164 366 366 366 366-164 366-366z" horiz-adv-x="1000" />

<glyph glyph-name="rh1" unicode="&#xe812;" d="M262 60h-24v102c0 9-6 15-15 15s-15-6-15-15v-259c0-4-4-9-9-9h-32v144c0 9-6 15-15 15s-15-6-15-15v-144h-32c-4 0-9 4-9 9v259c0 9-6 15-15 15s-15-6-15-15v-102h-24v194c0 32 22 59 49 59h121c26 0 49-26 49-59l1-194z m-49 283h-120c-43 0-78-40-78-88v-209c0-9 6-15 15-15h38v-128c0-21 18-38 38-38h94c21 0 38 18 38 38v128h38c9 0 15 6 15 15v208c0 49-35 89-78 89z m-60 147c31 0 56-25 56-57 0-31-25-57-56-57s-56 24-56 56c0 33 25 58 56 58z m0-144c47 0 85 38 85 87s-38 87-85 87-85-38-85-87c0-48 38-87 85-87z m803-286h-24v102c0 9-6 15-15 15s-15-6-15-15v-259c0-4-4-9-9-9h-32v144c0 9-6 15-15 15s-15-6-15-15v-144h-31c-4 0-9 4-9 9v259c0 9-6 15-15 15s-15-6-15-15v-102h-24v194c0 32 22 59 49 59h121c26 0 49-26 49-59v-194z m-49 283h-120c-43 0-78-40-78-88v-209c0-9 6-15 15-15h38v-128c0-21 18-38 38-38h94c21 0 38 18 38 38v128h38c9 0 15 6 15 15v209c0 48-35 88-78 88z m-60 147c31 0 56-25 56-57 0-31-25-57-56-57s-56 25-56 57 25 57 56 57z m0-144c47 0 85 38 85 87s-38 87-85 87-85-38-85-87c0-48 38-87 85-87z m-578 230c-1 125 99 230 230 230 128 0 232-104 234-231s-102-229-230-229c-129 0-234 103-234 230z m287-580c0-19-15-35-34-35h-32c-19 0-35 16-35 35l-3 222h103l1-222z m204 579c0 143-118 260-263 260-144 0-259-116-257-259 1-138 110-251 249-259v-69h-51c-4 0-7-1-10-4-3-3-4-6-4-10l1-237c0-35 29-65 65-65h32c35 0 65 29 63 65v235c0 7-6 15-15 15h-51v69c135 8 243 121 241 259z m-126-107h-263v37c0 41 34 74 74 74h115c41 0 74-34 74-74v-37z m-131 283c35 0 65-29 65-65 0-35-29-65-65-65-35 0-65 29-65 65s30 65 65 65z m160-298v51c0 57-47 103-103 103h-7c28 16 46 47 46 81 0 51-43 94-94 94-51 0-94-43-94-94 0-34 19-65 46-81h-10c-57 0-103-47-103-103v-51c0-9 6-15 15-15h291c6 0 13 6 13 15z" horiz-adv-x="1000" />

<glyph glyph-name="rh2" unicode="&#xe813;" d="M941 0l-28-18c-15-10-37-6-47 9l-120 180 84 54 120-179c10-15 6-36-9-46z m-156-87c0-10-9-19-19-19h-703c-10 0-19 9-19 19v874c0 10 9 19 19 19h703c10 0 19-9 19-19v-131c-49 54-118 87-193 87-47 0-91-13-131-37h-346c-9 0-15-6-15-15s6-15 15-15h307c-28-25-50-54-63-88h-244c-9 0-15-6-15-15s6-15 15-15h232c-1-7-4-13-4-21-4-22-6-46-4-68h-224c-9 0-15-6-15-15s6-15 15-15h226c6-31 18-60 35-88h-262c-9 0-15-6-15-15s6-15 15-15h286c49-56 119-88 194-88 46 0 90 12 128 35l37-56-41-26c-3-1-6-6-6-9-1-4 0-7 3-12l72-105v-147h-2z m30 533c-12-59-46-109-97-143-37-25-81-37-125-37-76 0-147 37-190 100-34 50-46 109-34 168 12 59 46 109 97 143 37 25 81 37 125 37 76 0 147-37 190-100 34-51 45-111 34-168z m160-383l-129 193c-4 7-13 9-21 4l-41-28-37 56c50 37 85 91 97 153 12 60 1 122-29 175v171c0 26-22 49-49 49h-703c-26 0-49-22-49-49v-874c0-26 22-49 49-49h703c26 0 49 22 49 49v103l28-41c19-29 59-37 88-18l26 18c30 19 37 59 18 88z m-240 394c-16 0-29 13-29 29 0 16 13 29 29 29 16 0 29-13 29-29 1-15-13-29-29-29z m-223-100c-16 0-29 13-29 29 0 16 13 29 29 29 16 0 29-13 29-29 0-15-13-29-29-29z m0 206c-16 0-29 13-29 29 0 16 13 29 29 29 16 0 29-13 29-29 0-16-13-29-29-29z m223-19c-18 0-34-9-44-21l-122 57c0 3 1 7 1 10 0 32-26 59-59 59-32 0-59-26-59-59 0-32 26-59 59-59 18 0 34 9 44 21l122-57c0-3-1-7-1-10 0-3 0-6 1-10l-121-54c-10 13-26 22-46 22-32 0-59-26-59-59 0-32 26-59 59-59 32 0 59 26 59 59 0 3 0 6-1 10l122 55c10-13 26-22 46-22 32 0 59 26 59 59-1 32-27 58-60 58z m-648-591c4 37 35 66 74 66h22c38 0 69-29 74-66h-170z m85 185c22 0 40-18 40-40s-18-40-40-40-40 18-40 40c0 23 18 40 40 40z m41-95c16 13 28 32 28 54 0 32-24 60-54 68v43h94l-21-18c-6-6-6-15-1-21 6-6 15-6 21-1l49 44c3 3 4 6 4 10s-1 7-4 10l-49 49c-6 6-15 6-21 0s-6-15 0-21l24-24h-112c-9 0-15-6-15-15v-57c-29-6-53-34-53-66 0-22 10-43 28-54-43-13-74-53-74-99v-7c0-9 6-15 15-15h200c9 0 15 6 15 15v6c-2 47-31 87-74 99z m109-90c4 37 35 66 74 66h22c38 0 69-29 74-66h-170z m85 185c22 0 40-18 40-40s-18-40-40-40-40 18-40 40c1 23 18 40 40 40z m42-95c16 13 28 32 28 54 0 38-31 69-69 69-38 0-69-31-69-69 0-22 10-43 28-54-43-13-74-53-74-99v-6c0-9 6-15 15-15h200c9 0 15 6 15 15v6c-1 47-32 87-74 99z m277-90h-169c4 37 35 66 74 66h22c38 0 71-29 73-66z m-83 185c22 0 40-18 40-40s-18-40-40-40-40 18-40 40c1 23 19 40 40 40z m69-39c0 38-31 69-69 69-38 0-69-31-69-69 0-22 10-43 28-54-43-13-74-53-74-99v-7c0-9 6-15 15-15h200c9 0 15 6 15 15v6c0 47-31 85-72 99 15 12 26 32 26 55z" horiz-adv-x="1000" />

<glyph glyph-name="credit-card" unicode="&#xe814;" d="M533 192h267c10 0 16 6 16 16v150c0 10-6 17-16 17h-267c-10 0-16-7-16-17v-150c0-10 6-16 16-16z m17 150h233v-117h-233v117z m-467 66h134c10 0 16 7 16 17s-6 17-16 17h-134c-10 0-16-7-16-17s6-17 16-17z m200 0h134c10 0 16 7 16 17s-6 17-16 17h-134c-10 0-16-7-16-17s6-17 16-17z m-200-66h217c10 0 17 6 17 16s-7 17-17 17h-217c-10 0-16-7-16-17s6-16 16-16z m334 33h-50c-10 0-17-7-17-17s7-16 17-16h50c10 0 16 6 16 16s-6 17-16 17z m568 207c-12 15-27 23-45 25l-40 4v81c0 36-30 66-67 66h-766c-37 0-67-30-67-66v-534c0-30 20-55 48-63-1-34 24-63 59-67l769-86h7c33 0 63 25 67 56l50 535c1 17-4 35-15 49z m-952 60h833v-100h-833v100z m34 83h766c18 0 33-15 33-33v-17h-833v17c0 18 15 33 34 33z m-34-567v350h833v-350c0-18-15-33-33-33h-766c-19 0-34 15-34 33z m933 382l-50-535c-1-18-18-32-36-30l-768 87c-17 1-29 15-30 30h751c37 0 67 30 67 66v422l38-3c8 0 17-5 22-12 5-7 8-17 6-25z" horiz-adv-x="1000" />

<glyph glyph-name="rh3" unicode="&#xe815;" d="M884 119c-85-75-215-65-290 24-74 87-63 218 22 293s215 65 290-24c75-87 65-218-22-293z m-499-218c-12-10-32-9-41 3l-21 22c-10 13-9 32 3 43l152 131 59-68-152-131z m544 530c-84 100-232 112-331 26-94-82-109-224-34-322l-46-38-28 34c-3 3-6 4-10 6-4 0-7-1-10-3l-162-140c-25-22-28-59-6-84l19-22c21-25 59-28 84-6l162 140c6 6 7 15 1 21l-29 34 46 38c87-91 228-96 321-15 95 82 107 232 23 331z m-66-246h-223v18c0 41 34 74 74 74h75c41 0 74-34 74-74v-18z m-110 244c29 0 54-24 54-54 0-29-25-54-54-54s-54 24-54 54c0 29 25 54 54 54z m47-123c22 15 35 40 35 69 0 46-37 84-84 84-46 0-84-37-84-84 0-28 15-53 35-69-53-4-94-49-94-103v-32c0-9 6-15 15-15h253c9 0 15 6 15 15v32c2 54-38 98-91 103z m-579 418c0 46 37 82 82 82h116c46 0 82-37 82-82v-3h-281l1 3z m172-190h-62v156h62v-156z m-62-83h62v-63h-62v63z m123-302c0 9-6 15-15 15h-335c-22 0-40 18-40 40v213c4-1 7-1 12-1h224v-41c0-9 6-15 15-15h91c9 0 15 6 15 15v41h103c9 0 15 6 15 15s-6 15-15 15h-103v22c0 9-6 15-15 15h-91c-9 0-15-6-15-15v-22h-223c-18 0-32 15-32 34v204c-1 3 2 6 5 6h251v-171c0-9 6-15 15-15h91c9 0 15 6 15 15v171h251c3 0 6-3 6-6v-143c0-9 6-15 15-15s15 6 15 15v143c0 19-16 35-35 35h-142v4c0 62-50 112-112 112h-116c-63 0-113-50-113-112v-4h-141c-19 0-35-16-35-35v-206c0-18 7-35 21-47v-228c0-38 31-69 69-69h335c7 0 14 6 14 15z" horiz-adv-x="1000" />

<glyph glyph-name="rh4" unicode="&#xe816;" d="M327 152l-25-62-25 63h50z m59 150l-40-103h-86l-40 103h166z m423-254h-473l105 267c1 2 2 5 2 8v1 369c0 13-11 24-24 24-13 0-24-11-24-24v-343h-71v342c0 13-11 24-24 24s-24-11-24-24v-342h-71v342c0 13-11 24-24 24-13 0-24-11-24-24v-370c0-3 1-6 2-8l120-294c2-11 12-19 23-19h507c13 0 24 11 24 24 0 12-11 23-24 23z" horiz-adv-x="1000" />

<glyph glyph-name="sansgluten" unicode="&#xe817;" d="M153 350c0 88 33 169 88 230l179-179c-5-8-8-16-11-25-11-40 8-79 14-89l-140-141c-4-4-4-10 0-14 2-2 5-3 7-3 2 0 5 1 7 3l141 141c8-4 34-17 64-17 9 0 17 1 25 3 9 2 17 6 25 11l178-179c-61-55-142-88-230-88-191 0-347 156-347 347z m315-47l1 1c8 7 17 15 29 20l39-39c-5-3-10-5-15-6-6-2-13-3-20-3-19 0-37 6-47 11 3 4 7 10 13 16z m-17 104c3 3 17 15 19 17 3-6 11-37 14-47l-33 30z m107-107l-32 34c10-2 43-12 49-15-1-2-14-16-17-19z m5 112c1 15 7 43 26 62 19 19 47 24 62 26-1-15-6-42-26-62s-48-25-62-26z m8-22c27 7 54-2 67-8-9-12-27-34-54-41-1-1-3-1-4-1-12 5-22 10-48 10l-11-3-6 6c9 11 33 31 56 37z m-82 41c0 1 0 2 1 4 7 26 29 45 41 54 6-13 16-40 8-67-6-23-27-48-39-58l-4 4c0 22-1 51-7 63z m-60-60c1 6 4 11 6 15l39-39c-9-21-27-36-37-43-5 13-15 40-8 67z m418-21c0-88-43-179-98-240l-176 176c10 12 26 32 26 32 1 2 1 5 1 7 36 14 57 48 61 55l56 56c4 4 4 10 0 14s-10 4-14 0l-52-52c-6 3-17 8-30 11 6 4 12 8 18 14 29 29 32 69 32 83l31 31c4 4 4 10 0 14-4 4-10 4-14 0l-31-31c-14 0-55-4-82-32-6-6-11-13-15-20-3 15-8 26-12 33l52 52c4 4 4 10 0 14-4 4-10 4-14 0l-56-56c-7-4-41-26-55-62-2 0-3 0-4-1-1 0-21-16-32-26l-179 177c61 55 152 98 240 98 191 0 347-156 347-347z m-347 367c-202 0-368-164-368-368 0-202 164-368 368-368s368 167 368 369-166 367-368 367z" horiz-adv-x="1000" />

<glyph glyph-name="storeloc" unicode="&#xe818;" d="M698 444c13 28 19 58 19 90 0 39-10 76-29 109-19 33-46 59-79 79-33 19-69 29-109 29-39 0-75-10-109-29-33-19-60-46-79-79-19-33-29-69-29-109 0-29 6-57 17-84l200-480 198 474z m-435-5c-12 30-18 61-18 95 0 46 11 88 34 128 23 39 54 70 93 93s82 34 128 34c46 0 89-11 128-34 39-23 70-54 93-93 23-39 34-82 34-128 0-36-7-70-21-102l-213-512h-42l-216 519z" horiz-adv-x="1000" />

<glyph glyph-name="terrasse" unicode="&#xe819;" d="M663 49h-140v323h-25v-323h-140c-16 0-29-13-29-29h363c1 16-12 29-29 29z m-152 554c-7 0-12-5-12-12v-15h25v15c-1 6-6 12-13 12z m-88-222h175l-88 158-87-158z m193-20h-210c-4 0-7 2-9 5-2 3-2 7 0 10l105 188c4 6 14 6 17 0l105-188c2-3 2-7 0-10-2-3-5-5-8-5z m46 20h150c6 0 8 5 8 6s2 6-2 10l-247 135 91-151z m150-20h-156c-4 0-7 2-9 5l-112 188c-2 4-2 9 1 12 3 3 8 4 12 2l280-154c1 0 1-1 1-1 10-8 13-20 9-32-3-13-14-20-26-20z m-608 35c-4-4-3-8-2-10 1-1 3-6 9-6h150l91 152-248-136z m162-35h-155c-12 0-23 8-27 19-4 12-1 24 9 32l1 1 280 154c4 2 9 1 12-2 3-3 4-8 1-12l-112-188c-2-3-5-4-9-4z" horiz-adv-x="1000" />

<glyph glyph-name="vegetalien" unicode="&#xe81a;" d="M500-7c-197 0-357 160-357 357s160 357 357 357 357-160 357-357-160-357-357-357z m0 734c-208 0-377-169-377-377s169-377 377-377 377 169 377 377-169 377-377 377z m171-492c-6-4-23-14-43-14-19 0-35 9-49 27 27 26 57 40 58 40 5 2 7 8 5 13-2 5-8 7-13 5-2-1-32-14-61-41-6 13-8 28-5 43 4 19 15 34 30 45 25 17 55 25 88 25 28 0 52-6 63-10-1-22-14-94-73-133z m-259 111c-5 2-11 0-13-5-2-5 0-11 5-13 40-19 65-43 82-67l-4-4c-19-17-44-27-70-27-30 0-59 13-79 36-72 82-58 190-53 219h15c38 0 133-8 196-79 33-37 35-91 8-130-19 25-46 50-87 70z m347 39c-1 1-34 14-78 14-37 0-71-10-99-29-20-13-34-34-39-57-4-22-1-43 10-62-9-11-18-22-24-36-4 13-10 29-19 44 37 47 36 115-5 161-69 77-171 86-211 86-15 0-24-1-24-1-4 0-8-3-9-7-1-6-35-142 56-244 24-27 58-42 94-42 31 0 60 11 83 32l2 2c22-40 19-75 19-78-1-6 4-10 9-11h1c5 0 9 4 10 9 3 28 15 51 30 69 22-26 46-32 63-32 25 0 46 12 54 17 79 52 83 152 83 157 1 2-2 6-6 8z" horiz-adv-x="1000" />

<glyph glyph-name="vegetarien" unicode="&#xe81b;" d="M542-19c-206-3-376 163-379 369-3 206 163 376 369 379 206 3 376-163 379-369 3-206-162-376-369-379z m-10 767c-217-3-390-182-387-398 3-217 182-390 398-387 216 2 390 181 387 397-3 217-182 391-398 388z m8-628c-13 10-48 82-67 160l64 1c5 0 9 4 9 9s-4 9-10 9l-66 1c-2 10-4 20-5 30h2l71 1c5 0 9 4 9 9s-4 9-10 9l-71-1c-1 0-2 0-4-1-1 7-1 13-1 20v11l75 1c5 0 9 4 9 10 0 5-4 9-10 9l-74-1c5 76 38 76 73 77 39 1 75 1 77-104 3-103-53-236-71-250z m-5 371c-46-1-88-9-92-103v-22c1-97 63-266 98-265 34 0 92 171 90 268-2 114-46 123-96 122z m-39 13c5 0 9 4 9 10l-1 62c0 5-4 9-10 9-5 0-9-4-9-10l1-62c1-5 5-9 10-9z m78 1c5 0 9 4 9 10l-1 62c0 5-4 9-10 9-5 0-9-4-9-10l1-62c0-5 5-9 10-9z m-39-1c5 0 9 4 9 10l-1 86c0 5-4 9-10 9-5 0-9-4-9-10l1-86c1-5 5-9 10-9z" horiz-adv-x="1000" />

<glyph glyph-name="mobile" unicode="&#xe81c;" d="M0-56l0 812q0 39 27 67t67 27l500 0q39 0 66-27t28-67l0-812q0-39-28-67t-66-27l-500 0q-39 0-67 27t-27 67z m63 0q0-14 8-23t23-9l500 0q13 0 22 9t9 23l0 62-562 0 0-62z m0 94l562 0 0 624-562 0 0-624z m0 656l562 0 0 62q0 14-9 23t-22 8l-500 0q-14 0-23-8t-8-23l0-62z m218 47q0 15 16 15l94 0q15 0 15-15t-15-16l-94 0q-16 0-16 16z m32-782q0 16 15 16l31 0q16 0 16-16t-16-15l-31 0q-15 0-15 15z" horiz-adv-x="687" />

<glyph glyph-name="wifi" unicode="&#xe81d;" d="M433 143c-10-10-10-26 0-35 10-10 26-10 35 0 18 18 46 18 64 0 5-5 11-7 18-7 6 0 13 2 18 7 10 10 10 26 0 35-38 37-98 37-135 0z m438 303c-99 99-231 154-371 154s-272-54-371-154c-10-10-10-26 0-35 10-10 26-10 35 0 90 89 209 139 336 139 127 0 246-49 335-139 5-5 11-7 18-7 6 0 13 2 18 7 9 10 9 25 0 35z m-371 14c-103 0-199-40-272-112-10-10-10-26 0-35 5-5 11-7 18-7 6 0 13 2 18 7 63 62 147 97 236 97 89 0 173-35 236-98 10-10 26-10 35 0 10 10 10 26 0 35-72 73-168 113-271 113z m0-137c-66 0-128-26-175-72-10-10-10-26 0-35 5-5 11-7 18-7s13 2 18 7c37 37 87 58 140 58 53 0 102-21 140-58 10-10 26-10 35 0 10 10 10 26 0 35-48 46-110 72-176 72z" horiz-adv-x="1000" />

<glyph glyph-name="ok-1" unicode="&#xe81e;" d="M933 534q0-22-16-38l-404-404-76-76q-16-15-38-15t-38 15l-76 76-202 202q-15 16-15 38t15 38l76 76q16 16 38 16t38-16l164-165 366 367q16 16 38 16t38-16l76-76q16-15 16-38z" horiz-adv-x="1000" />

<glyph glyph-name="salon" unicode="&#xe81f;" d="M816 345c-9-2-15-10-15-19v-278c0-5-2-9-5-13-3-3-8-5-13-5h-27c-10 0-18 8-18 18v68c0 5-2 10-6 14s-9 6-14 6h-437c-11 0-20-9-20-20v-68c0-5-2-9-5-13-3-3-8-5-13-5h-27c-10 0-18 8-18 18v278c0 9-6 17-15 19-22 6-38 24-42 47-4 22 5 45 23 59s42 16 63 6c20-10 33-31 34-53v-185c0-5 2-10 6-14s9-6 14-6h439c5 0 10 2 14 6s6 9 6 14v184c0 23 13 43 34 53 20 10 45 8 63-6s27-37 23-59c-6-22-22-40-44-46z m-515 125c0 71 38 137 100 173 62 36 138 36 199 0 62-36 100-101 100-173 0-2 0-3 1-5 0-2-1-3-1-5v-109c-132 25-267 26-399 3v116z m0-157c132 23 267 22 398-3v-72h-398v75z m499 190c-22 0-43-7-61-21-4 82-51 157-123 196-72 40-160 40-232 0-72-40-119-114-123-196-23 16-51 22-78 16-27-6-51-23-65-46-14-24-18-53-10-79 8-27 26-49 51-61v-264c0-15 6-30 17-41 11-11 26-17 41-17h27c32 0 58 26 58 58v49h399v-48c0-15 6-30 17-41 11-11 26-17 41-17h27c32 0 58 26 58 58v263c44 19 68 66 58 113-13 46-54 79-102 78z m-201-116s-52 13-99 13-99-13-99-13c-7 0-13 6-13 13 0 7 6 13 13 13 0 0 60 13 99 13s99-13 99-13c7 0 13-6 13-13 0-7-6-13-13-13z" horiz-adv-x="1000" />

<glyph glyph-name="cancel-1" unicode="&#xe820;" d="M452 194q18-18 18-43t-18-43q-18-16-43-16t-43 16l-132 152-132-152q-18-16-43-16t-43 16q-16 18-16 43t16 43l138 156-138 158q-16 18-16 43t16 43q18 16 43 16t43-16l132-152 132 152q18 16 43 16t43-16q18-18 18-43t-18-43l-138-158z" horiz-adv-x="470" />

<glyph glyph-name="livraison" unicode="&#xe821;" d="M283 213h433v99h-433v-99z m453-39h-472c-11 0-19 9-19 19v138c0 11 9 19 19 19h472c11 0 19-9 19-19v-138c0-10-9-19-19-19z m-285 176h98v356h-98v-356z m117-38h-136c-11 0-19 9-19 19v395c0 11 9 19 19 19h136c11 0 19-9 19-19v-394c0-12-8-20-19-20z m-438 219v-518c0-11 9-19 19-19h701c11 0 19 9 19 19v518h-282v-200c0-11-9-19-19-19h-136c-11 0-19 9-19 19v200h-283z m721-576h-702c-32 0-58 26-58 58v537c0 11 9 19 19 19h321c11 0 19-9 19-19v-200h98v200c0 11 9 19 19 19h321c11 0 19-9 19-19v-537c1-32-25-58-56-58z m-264 614h336v118c0 11-9 19-19 19h-317v-137z m355-38h-374c-11 0-19 9-19 19v176c0 11 9 19 19 19h336c32 0 58-26 58-58v-137c0-10-9-19-20-19z m-865 38h336v137h-317c-11 0-19-9-19-19v-118z m355-38h-374c-11 0-19 9-19 19v137c0 32 26 58 58 58h336c11 0 19-9 19-19v-176c-1-10-9-19-20-19z m-123 114h-190c-9 0-16 7-16 16v1c0 9 7 16 16 16h190c9 0 16-7 16-16v-1c0-9-7-16-16-16z m459 0h-117c-9 0-16 7-16 16v1c0 9 7 16 16 16h117c9 0 16-7 16-16v-1c0-9-7-16-16-16z m108 0h-34c-9 0-16 7-16 16v1c0 9 7 16 16 16h34c9 0 16-7 16-16v-1c0-9-7-16-16-16z" horiz-adv-x="1000" />

<glyph glyph-name="left-open-big" unicode="&#xe822;" d="M452-20q26-26 0-48-26-26-48 0l-392 394q-24 24 0 50l392 394q22 26 48 0 26-22 0-48l-358-372z" horiz-adv-x="465" />

<glyph glyph-name="right-open-big" unicode="&#xe823;" d="M13-20l358 370-358 372q-26 26 0 48 26 26 48 0l392-394q24-26 0-50l-392-394q-22-26-48 0-26 22 0 48z" horiz-adv-x="465" />

<glyph glyph-name="right-open-mini" unicode="&#xe824;" d="M13 180l158 170-158 172q-26 26 0 48 26 26 48 0l192-194q24-26 0-50l-192-194q-22-26-48 0-26 22 0 48z" horiz-adv-x="265" />

<glyph glyph-name="left-open-mini" unicode="&#xe825;" d="M252 180q26-26 0-48-26-26-48 0l-192 194q-24 24 0 50l192 194q22 26 48 0 26-22 0-48l-156-172z" horiz-adv-x="265" />

<glyph glyph-name="plus-1" unicode="&#xe826;" d="M550 400q30 0 30-50t-30-50l-210 0 0-210q0-30-50-30t-50 30l0 210-210 0q-30 0-30 50t30 50l210 0 0 210q0 30 50 30t50-30l0-210 210 0z" horiz-adv-x="580" />

<glyph glyph-name="avoirs" unicode="&#xe827;" d="M723-23h-446c-33 0-60 27-60 60v606c0 33 27 60 60 60h446c33 0 60-27 60-60v-606c0-33-27-60-60-60z m80 60v606c0 21-8 42-23 57-15 15-35 23-57 23h-446c-44 0-80-36-80-80v-606c0-21 8-42 23-57 15-15 35-23 57-23h446c21 0 42 8 57 23 15 15 23 36 23 57z m-123 455h-360v111h360v-111z m10 131h-380c-6 0-10-4-10-10v-131c0-3 1-5 3-7s4-3 7-3h380c3 0 5 1 7 3s3 4 3 7v131c0 3-1 5-3 7s-4 3-7 3z m43-436c0 3-1 5-3 7s-4 3-7 3h-446c-6 0-10-4-10-10 0-5 5-10 10-10h446c5 1 10 5 10 10z m-356-90c-6 0-10-4-10-10 0-5 5-10 10-10h246c5 0 10 5 10 10 0 3-1 5-3 7s-4 3-7 3h-246z m313 295h-380c-3 0-5-1-7-3-2-2-3-5-3-7 0-3 1-5 3-7s4-3 7-3h380c3 0 5 1 7 3s3 4 3 7c0 3-1 5-3 7-2 2-4 3-7 3z m0-100h-380c-3 0-5-1-7-3-2-2-3-5-3-7 0-3 1-5 3-7s4-3 7-3h380c3 0 5 1 7 3s3 4 3 7c0 3-1 5-3 7-2 2-4 3-7 3z" horiz-adv-x="1000" />

<glyph glyph-name="search-1" unicode="&#xe828;" d="M430 650c127 0 230-103 230-230s-103-230-230-230-230 103-230 230 103 230 230 230z m0 60c-160 0-290-130-290-290s130-290 290-290c69 0 133 24 182 65l196-196c12-12 31-12 42 0s12 30 0 42l-195 196c41 50 65 114 65 183 0 160-130 290-290 290l0 0z" horiz-adv-x="1000" />

<glyph glyph-name="camion" unicode="&#xe829;" d="M714-18l0 0c41 1 74 35 75 76 0 42-34 76-75 76-41-1-74-35-75-76-1-42 33-76 75-76l0 0z m0 192c64 0 115-52 115-116-1-63-52-115-115-116-55 0-102 39-113 92h-147c-11 0-20 9-20 20 0 11 9 20 20 20h146c8 57 56 99 114 100l0 0z m-98 198h189l-100 158h-88l-1-158z m-7 198h99c11 0 22-6 28-15l110-172c7-10 7-23 1-34-6-11-17-17-29-17h-209c-18 0-33 15-33 33v172c0 18 15 33 33 33l0 0z m-340-588c41 1 74 35 75 76 0 42-34 76-75 76-41-1-74-35-75-76 0-42 33-76 75-76z m-184 776h388c40 0 73-32 73-72v-3h205c26 0 51-13 65-36l155-244c12-18 18-39 18-61v-236c0-40-33-73-73-73h-20c-11 0-20 9-20 20 0 11 9 20 20 20h20c18 0 33 15 33 33v237c0 14-4 27-11 39l-156 244c-7 11-18 17-31 17h-225c-5 0-10 2-14 6s-6 9-6 14l-1 23c0 18-15 33-33 33h-387c-18 0-33-15-33-33v-578c0-18 15-33 33-33h71c9 56 57 99 114 99 31 0 60-12 82-34 22-22 34-51 34-82-1-63-52-115-115-116-55 0-102 39-113 92h-74c-40 0-73 33-73 73v578c1 40 33 73 74 73l0 0z" horiz-adv-x="1000" />

<glyph glyph-name="storeloc02" unicode="&#xe82a;" d="M730 667c-24 40-56 73-97 97-40 23-85 35-133 35-48 0-93-12-133-35-40-24-73-56-97-97-24-41-35-85-35-133 0-35 6-67 19-99l218-525h55l215 518c14 33 22 69 22 106 1 48-11 93-34 133z m-230 74c38 0 72-9 104-28 33-20 58-45 76-75 18-32 28-67 28-104 0-32-6-60-18-86l-190-452-191 458c-11 26-16 53-16 80 0 38 9 72 28 104 18 31 44 57 75 75 33 19 67 28 104 28z" horiz-adv-x="1000" />

<glyph glyph-name="calendar" unicode="&#xe82b;" d="M837 52c0-21-17-39-39-39h-596c-21 0-39 17-39 39v389h674l0-389 0 0z m-39 596h-130v52c0 7-6 13-13 13-7 0-13-6-13-13v-117c0-7 6-13 13-13 7 0 13 6 13 13v39h130c21 0 39-17 39-39v-117l-674 0v117c0 21 17 39 39 39h104v26h-104c-36 0-65-29-65-65v-531c0-36 29-65 65-65h596c36 0 65 29 65 65v531c0 36-29 65-65 65l0 0z m-454-78c7 0 13 6 13 13v39h259v26h-259v52c0 7-6 13-13 13-7 0-13-6-13-13v-117c1-7 6-13 13-13l0 0z" horiz-adv-x="1000" />

<glyph glyph-name="croix" unicode="&#xe836;" d="M899 752l23-23-382-382 382-382-23-23-382 382-382-382-23 23 382 382-382 382 23 23 382-382z" horiz-adv-x="1000" />

<glyph glyph-name="croix-1" unicode="&#xe838;" d="M899 752l23-23-382-382 382-382-23-23-382 382-382-382-23 23 382 382-382 382 23 23 382-382z" horiz-adv-x="1000" />

<glyph glyph-name="velo02" unicode="&#xe84c;" d="M199 348c10 0 19-1 26-3 1 0 3-1 4-1 5 0 10 3 12 9 2 7-1 14-8 16-9 3-21 5-34 5-7 0-12-6-12-12s5-14 12-14z m773 109c0 1 0 1 0 2 0 1 0 2 0 2 0 1-1 1-1 2 0 1-1 1-1 2-1 1-1 1-2 2-1 0-1 1-2 1-1 0-2 1-2 1-1 0-1 0-2 1 0 0 0 0-1 0 0 0 0 0-1 0h-430l-17 79 60 13c22 7 33 20 33 40 0 18-15 32-32 32h-76c-7 0-12-6-12-12s4-12 11-12h76c4 0 8-3 8-8 0-5 0-12-14-16l-73-16c-7-1-11-8-9-15 0-2 1-3 2-4l65-296h-10c-1 0-2 0-4 0-57 3-160 42-215 261h74c7 0 12 6 12 12s-5 12-12 12h-129c-7 0-12-6-12-12s6-12 12-12h29c6-26 13-49 21-70 0 0 0 0 0 0l-36-53c-24 13-52 21-82 21-94 0-170-76-170-170s76-170 170-170c90 0 163 70 170 158h209c6-88 80-158 170-158s163 70 170 158h13c1 0 2 0 2 0 0 0 1 0 1 0 0 0 1 0 1 0 6 0 12 5 12 11l23 215c1-2 1-2 1-1 0 0 0 0 0 0z m-644-41c37-90 83-137 126-162h-84c-4 50-29 95-67 123l25 39z m1-161c-2 22-10 43-23 62-4 6-12 7-17 3-6-4-7-12-3-17 10-14 16-31 18-47h-84l69 103c31-24 53-61 56-103h-16z m-129-158c-80 0-145 65-145 145s65 146 145 146c24 0 47-6 68-17l-82-122c0 0 0-1 0-1 0-1-1-2-1-2 0-1 0-2 0-2 0 0 0-1 0-1 0 0 0-1 0-1 0-1 0-2 1-2 0-1 1-1 1-2 0-1 1-1 1-2 1-1 1-1 2-2 0 0 0-1 1-1 0 0 1 0 1-1 0 0 1 0 1-1 1-1 3-1 4-1 0 0 0 0 0 0 0 0 0 0 0 0h108c-6-52-50-92-104-92-58 0-105 47-105 105 0 35 17 67 47 87 6 4 7 12 3 17-4 6-12 7-17 3-38-25-59-65-59-108 0-71 59-130 130-130 67 0 123 51 129 117h16c-7-74-69-132-145-132z m549 0c-76 0-139 59-145 133h16c6-66 61-118 129-118 26 0 51 7 72 22 6 4 7 12 3 17-4 6-12 7-17 3-17-12-37-18-58-18-54 0-98 41-104 93h208c-1-7-2-15-5-22-2-7 1-14 8-16 1 0 3-1 4-1 5 0 10 3 12 9 3 9 5 19 6 29h16c-7-73-69-131-145-131z m177 158h-349l-41 190h411l-21-190z m-139 171h-211c-7 0-12-6-12-12s6-12 12-12h211c7 0 12 6 12 12s-5 12-12 12z m92 0h-51c-7 0-12-6-12-12s6-12 12-12h51c7 0 12 6 12 12s-5 12-12 12z" horiz-adv-x="1000" />

<glyph glyph-name="cadena" unicode="&#xe862;" d="M784 33c0-36-29-66-66-66h-437c-36 0-66 29-66 66v284c0 36 29 66 66 66h438c36 0 66-29 66-66v-284z m-459 525c0 96 79 175 175 175s175-79 175-175v-131h-350v131z m394-131v131c0 121-98 219-219 219s-219-98-219-219v-131c-60 0-109-49-109-109v-284c0-60 49-109 109-109h438c60 0 109 49 109 109v283c0 60-49 110-109 110z" horiz-adv-x="1000" />

<glyph glyph-name="twitter" unicode="&#xf099;" d="M904 622q-37-54-90-93 0-8 0-23 0-73-21-145t-64-139-103-117-144-82-181-30q-151 0-276 81 19-2 43-2 126 0 224 77-59 1-105 36t-64 89q19-3 34-3 24 0 48 6-63 13-104 62t-41 115v2q38-21 82-23-37 25-59 64t-22 86q0 49 25 91 68-83 164-133t208-55q-5 21-5 41 0 75 53 127t127 53q79 0 132-57 61 12 115 44-21-64-80-100 52 6 104 28z" horiz-adv-x="928.6" />

<glyph glyph-name="facebook" unicode="&#xf09a;" d="M535 843v-147h-87q-48 0-65-20t-17-60v-106h164l-22-165h-142v-424h-171v424h-142v165h142v122q0 104 58 161t155 57q82 0 127-7z" horiz-adv-x="571.4" />

<glyph glyph-name="youtube-play" unicode="&#xf16a;" d="M397 221l270 139-270 141v-280z m103 481q94 0 181-3t128-5l41-2q0 0 9-1t13-2 13-2 16-5 16-7 17-11 16-15q4-3 9-10t16-33 15-56q4-36 7-76t3-64v-98q1-81-10-162-4-30-14-55t-18-35l-8-9q-7-8-16-15t-17-10-16-7-16-5-13-2-13-2-9-1q-140-11-350-11-115 2-201 4t-111 4l-28 3-20 2q-20 3-30 5t-29 12-31 23q-4 3-9 10t-16 33-15 56q-4 36-7 76t-3 64v98q-1 81 10 162 4 31 14 55t18 35l8 9q8 9 16 15t17 11 16 7 16 5 13 2 13 2 9 1q140 10 350 10z" horiz-adv-x="1000" />

<glyph glyph-name="instagram" unicode="&#xf16d;" d="M571 350q0 59-41 101t-101 42-101-42-42-101 42-101 101-42 101 42 41 101z m77 0q0-91-64-156t-155-64-156 64-64 156 64 156 156 64 155-64 64-156z m61 229q0-21-15-36t-37-15-36 15-15 36 15 36 36 15 37-15 15-36z m-280 123q-4 0-43 0t-59 0-54-2-57-5-40-11q-28-11-49-32t-33-49q-6-16-10-40t-6-58-1-53 0-59 0-43 0-43 0-59 1-53 6-58 10-40q12-28 33-49t49-32q16-6 40-11t57-5 54-2 59 0 43 0 42 0 59 0 54 2 58 5 39 11q28 11 50 32t32 49q6 16 10 40t6 58 1 53 0 59 0 43 0 43 0 59-1 53-6 58-10 40q-11 28-32 49t-50 32q-16 6-39 11t-58 5-54 2-59 0-42 0z m428-352q0-128-3-177-5-116-69-180t-179-69q-50-3-177-3t-177 3q-116 6-180 69t-69 180q-3 49-3 177t3 177q5 116 69 180t180 69q49 3 177 3t177-3q116-6 179-69t69-180q3-49 3-177z" horiz-adv-x="857.1" />

<glyph glyph-name="pinterest" unicode="&#xf231;" d="M0 517q0 60 21 113t58 93 85 69 103 44 113 14q88 0 164-37t123-108 47-160q0-54-10-105t-34-99-56-83-80-58-106-21q-38 0-75 18t-54 49q-5-22-15-63t-14-53-11-40-15-39-17-35-26-44-35-48l-7-3-5 6q-9 88-9 105 0 51 12 115t37 161 29 113q-18 36-18 94 0 47 29 87t74 41q34 0 53-23t19-57q0-37-24-106t-25-105q0-35 25-58t61-23q31 0 57 14t44 38 31 53 21 61 11 62 4 56q0 96-61 150t-160 54q-111 0-186-72t-75-183q0-25 7-48t15-36 15-26 7-17q0-15-8-40t-21-25q-1 0-9 1-29 9-51 31t-34 53-18 60-6 60z" horiz-adv-x="714.3" />
</font>
</defs>
</svg>
